/* XPM */
static char * stickf_xpm[] = {
"20 20 3 1",
" 	c None",
".	c #1565C0",
"+	c #FAFAFA",
"....................",
"....................",
"....................",
"....................",
"....................",
"....................",
"....................",
"....................",
"........++++........",
"........++++........",
"........++++........",
"........++++........",
"....................",
"....................",
"....................",
"....................",
"....................",
"....................",
"....................",
"...................."};
