/* XPM */
static char * sticku_xpm[] = {
"20 20 3 1",
" 	c None",
".	c #607D8B",
"+	c #FAFAFA",
"....................",
"....................",
"....................",
"....................",
"....................",
"....................",
"....................",
"....................",
"........++++........",
"........++++........",
"........++++........",
"........++++........",
"....................",
"....................",
"....................",
"....................",
"....................",
"....................",
"....................",
"...................."};
